<?xml version="1.0" encoding="utf-8"?>
<!-- Generator: Adobe Illustrator 22.0.1, SVG Export Plug-In . SVG Version: 6.00 Build 0)  -->
<svg version="1.1" id="Layer_1" xmlns="http://www.w3.org/2000/svg" xmlns:xlink="http://www.w3.org/1999/xlink" x="0px" y="0px"
	 width="100px" height="100px" viewBox="0 0 100 100" style="enable-background:new 0 0 100 100;" xml:space="preserve">
<metadata><?xpacket begin="﻿" id="W5M0MpCehiHzreSzNTczkc9d"?>
<x:xmpmeta xmlns:x="adobe:ns:meta/" x:xmptk="Adobe XMP Core 5.6-c143 79.161210, 2017/08/11-10:28:36        ">
   <rdf:RDF xmlns:rdf="http://www.w3.org/1999/02/22-rdf-syntax-ns#">
      <rdf:Description rdf:about=""/>
   </rdf:RDF>
</x:xmpmeta>
                                                                                                    
                                                                                                    
                                                                                                    
                                                                                                    
                                                                                                    
                                                                                                    
                                                                                                    
                                                                                                    
                                                                                                    
                                                                                                    
                                                                                                    
                                                                                                    
                                                                                                    
                                                                                                    
                                                                                                    
                                                                                                    
                                                                                                    
                                                                                                    
                                                                                                    
                                                                                                    
                           
<?xpacket end="w"?></metadata>
<style type="text/css">
	.st0{fill:#FF4D00;}
</style>
<path class="st0" d="M89.8,27.6c-0.2,0.4-0.8,0.3-1.1,0.2c-1.2-0.7-2.5-1.7-4.1-3.3c0.5,2.1,0.7,4.1,0.7,5.4c0,0.4-0.2,0.9-0.7,0.9
	h-2.2c-0.5,0-0.7-0.5-0.7-0.9c0-1.4,0.1-3.1,0.7-5.3c-1.5,1.4-3.2,2.7-4.2,3.2c-0.3,0.2-0.8,0.3-1.1-0.1l-1.1-2
	c-0.2-0.4,0.1-0.8,0.4-1c1.2-0.7,2.7-1.4,4.8-2.1c-2-0.6-3.8-1.6-4.9-2.1c-0.4-0.2-0.7-0.6-0.4-1.1l1.1-2c0.2-0.4,0.8-0.3,1.1-0.1
	c1.2,0.7,2.6,1.7,4.2,3.2c-0.5-2.1-0.7-4.1-0.7-5.4c0-0.4,0.2-0.9,0.7-0.9h2.2c0.5,0,0.7,0.5,0.7,0.9c0,1.4-0.2,3.2-0.7,5.4
	c1.5-1.5,3.2-2.7,4.1-3.3c0.4-0.2,0.9-0.2,1.2,0.2l1.1,1.9c0.2,0.4-0.1,0.8-0.4,1.1c-1.2,0.7-2.7,1.4-4.8,2.1c2,0.6,3.8,1.4,4.8,2.1
	c0.4,0.2,0.7,0.6,0.4,1.1L89.8,27.6z M54.2,46.7v-2c0-3.6-1.7-5.6-5.6-5.6h-6.4c-0.3,0-0.6,0.3-0.6,0.6v23.7c0,0.3,0.3,0.6,0.6,0.6
	h6.6c3.9,0,5.7-2,5.7-5.6v-2.7c0-2.4-1-4.1-3.4-4.6C53.2,50.8,54.2,49.3,54.2,46.7z M45.4,42.7h3.1c1.3,0,1.9,0.9,1.9,2.2v2.3
	c0,1.6-0.8,2.5-2.3,2.5h-2.7V42.7z M50.7,58.3c0,1.1-0.6,2-1.8,2h-3.5v-6.7h3.2c1,0,2.1,0.8,2.1,2.3V58.3z M30.3,74.1V53.3h4.2
	c0.3,0,0.6-0.3,0.6-0.6v-2.3c0-0.3-0.3-0.6-0.6-0.6H22.3c-0.3,0-0.6,0.3-0.6,0.6v2.3c0,0.3,0.3,0.6,0.6,0.6h4.2v20.8
	c0,0.3,0.3,0.6,0.6,0.6h2.6C30.1,74.7,30.3,74.4,30.3,74.1z M67.6,28.5h-6.3c-0.3,0-0.6,0.3-0.6,0.6v23.8c0,0.3,0.3,0.6,0.6,0.6h6.3
	c4.5,0,6.5-2.9,6.5-6.7V35.2C74.1,31.4,72.2,28.5,67.6,28.5z M70.3,46.5c0,2-0.9,3.2-2.8,3.2h-2.8V32h2.8c2,0,2.8,1.1,2.8,3.2V46.5z
	 M99.8,44.8l-7.9-6.3c-0.3-0.2-0.7-0.2-0.9,0.1l-6.1,8.3c-0.2,0.3-0.2,0.7,0.1,0.9l2.1,1.6c0.3,0.2,0.7,0.2,0.9-0.1l1.7-2.3
	c0.4-0.7,0.5-1.3,0.5-1.3c0-0.1,0.1-0.2,0.2-0.2c0.1,0,0.1,0,0.2,0.1c0,0.2,0,0.4,0.1,0.6c0,0.2,0,0.4,0,0.6c0,0.3,0,0.7,0.1,1
	c0,0.8,0.1,1.5,0.1,2.3c0,24.7-20.7,44.6-45.7,43.3C23,92.1,5.2,74.3,4,52.4C2.7,27.4,22.6,6.7,47.3,6.7c7.6,0,15.1,2,21.6,5.8
	l2-3.4c-7.1-4.1-15.3-6.3-23.6-6.3C20.4,2.7-1.4,25.3,0.1,52.6c1.3,24,20.7,43.4,44.7,44.7C72,98.7,94.6,76.9,94.6,50
	c0-1.4-0.1-2.7-0.2-4.1c0-0.2,0-0.4-0.1-0.6c0-0.1-0.1-0.3,0.1-0.3c0.2-0.1,0.3,0.2,0.3,0.3c0.1,0.4,0.3,0.8,0.7,1.1
	c0.2,0.2,0.4,0.3,0.6,0.5c0.4,0.3,0.8,0.7,1.2,1c0.3,0.2,0.7,0.2,0.9-0.1l1.7-2.1C100.1,45.4,100,45,99.8,44.8z"/>
</svg>
